<svg version="1.2" xmlns="http://www.w3.org/2000/svg" viewBox="0 0 300 300" width="300" height="300">
	<title>mapasjp</title>
	<style>
		.s0 { fill: #1f982d;stroke: #000000;stroke-width: 2 } 
	</style>
	<path id="Forma 1" class="s0" d="m4.3 93.2l51.1-46.1h16.1l8 10.2h26.9c0 0 4.9 7 16.1 12.8 11.2 5.9 8 2.6 8 2.6h10.8c0 0 6.1 6.9 10.7 7.7 4.7 0.8 13.4 0 13.4 0l13.5-5.1 8-2.6h8.1 21.5v2.6h8c0 0 21.1-11.2 32.2-12.8 11.1-1.7 29.6 0 29.6 0h2.6 5.4 2.7v5.1c0 0-9.6 7.1-10.7 10.2-1.1 3.2-2.7 7.7-2.7 7.7v2.6l-2.7 2.5h-8.1v-2.5l-2.6-2.6h-10.8-2.7c0 0-20.8 10.5-18.8 28.2 2.1 17.6 2.7 23 2.7 23l2.7 5.2 2.7 12.8 5.4 10.2 2.6 2.6 2.7 5.1c0 0 2.5 3.8 0 5.1-2.5 1.4-8 0-8 0h-5.4-2.7c0 0-2.8-2.6-5.4-2.5-2.5 0-2.6 2.5-2.6 2.5 0 0-9 5.6-10.8 10.3-1.7 4.6-2.7 10.2-2.7 10.2v5.1c0 0-5.2 11.1-16.1 10.3-10.9-0.8-13.4 0-13.4 0l-2.7 5.1-5.4 5.1-8 10.3c0 0-1.1 2.8-2.7 2.5-1.6-0.2-5.4-2.5-5.4-2.5l-2.6-2.6-2.7-2.6c0 0-3.7-2.2-5.4 0-1.7 2.3-5.4 7.7-5.4 7.7l-5.3 5.2-5.4 5.1-8.1 5.1c0 0-4.7 2.1-8 0-3.4-2.1-5.4-2.6-5.4-2.6l-2.7-2.5-2.7-2.6-2.6-2.5h-18.8l-8.1 7.6c0 0-1.8-0.6-2.7-2.5-0.9-2-2.7-7.7-2.7-7.7l-2.6-2.6-2.7-2.5-2.7-7.7v-5.1-5.2-5.1-5.1-5.1l-10.8-12.8-13.4-2.6c0 0-16.2-8.6-18.8-12.8-2.6-4.2-5.3-10.3-5.3-10.3l-2.7-5.1c0 0-1.1-1.1-2.7-2.5-1.6-1.5-2.7-2.6-2.7-2.6v-2.6-2.5l2.7-2.6 2.7-2.5v-5.2h8 5.4 2.7v-2.5-2.6-2.6l-26.9-30.7h-2.7z"/>
</svg>